<?xml version="1.0" encoding="UTF-8" standalone="no"?>
<!-- Created with Inkscape (http://www.inkscape.org/) -->

<svg
   width="129.98695"
   height="63.991856"
   viewBox="0 0 34.392381 16.931177"
   version="1.1"
   id="svg5"
   inkscape:version="1.2.1 (9c6d41e410, 2022-07-14)"
   sodipodi:docname="logo.svg"
   xmlns:inkscape="http://www.inkscape.org/namespaces/inkscape"
   xmlns:sodipodi="http://sodipodi.sourceforge.net/DTD/sodipodi-0.dtd"
   xmlns="http://www.w3.org/2000/svg"
   xmlns:svg="http://www.w3.org/2000/svg">
  <sodipodi:namedview
     id="namedview7"
     pagecolor="#ffffff"
     bordercolor="#111111"
     borderopacity="1"
     inkscape:showpageshadow="false"
     inkscape:pageopacity="0"
     inkscape:pagecheckerboard="1"
     inkscape:deskcolor="#d1d1d1"
     inkscape:document-units="px"
     showgrid="false"
     showguides="false"
     inkscape:zoom="4"
     inkscape:cx="107.5"
     inkscape:cy="53.75"
     inkscape:window-width="1920"
     inkscape:window-height="1017"
     inkscape:window-x="-8"
     inkscape:window-y="-8"
     inkscape:window-maximized="1"
     inkscape:current-layer="g22541" />
  <defs
     id="defs2">
    <linearGradient
       id="linearGradient5214"
       inkscape:swatch="solid">
      <stop
         style="stop-color:#000000;stop-opacity:1;"
         offset="0"
         id="stop5212" />
    </linearGradient>
  </defs>
  <g
     inkscape:label="Слой 1"
     inkscape:groupmode="layer"
     id="layer1"
     transform="translate(-8.7931674,-4.7900416)">
    <path
       style="fill:#000000;stroke-width:0.264583"
       d="M 189.83871,130.58064 H 24.483871 Z"
       id="path113" />
    <path
       style="opacity:1;fill:none;fill-opacity:1;stroke-width:0.353553"
       d="m 257.21009,465.45715 -36.06244,-0.18089 -20.77329,-5.68834 c -11.42531,-3.12859 -20.84902,-5.76408 -20.94158,-5.85664 -0.0926,-0.0926 -0.21098,-25.19143 -0.26314,-55.77526 l -0.0948,-55.60697 82.73149,0.25459 c 45.50233,0.14002 82.83272,0.31249 82.95643,0.38325 0.30949,0.17704 9.49779,17.37305 9.49779,17.77522 0,0.17783 -2.78424,2.90463 -6.18719,6.05955 -3.40295,3.15492 -6.18718,5.78204 -6.18718,5.83805 0,0.056 2.86378,3.24466 6.36396,7.0859 3.50018,3.84125 6.36396,7.09142 6.36396,7.22262 0,0.13119 -2.56136,3.95089 -5.69192,8.48822 -3.13056,4.53733 -5.76746,8.44652 -5.85978,8.6871 -0.0923,0.24058 2.36457,4.46837 5.45976,9.39509 3.09519,4.92671 5.73618,9.14797 5.86888,9.38057 0.13565,0.23778 -1.92964,3.99842 -4.71758,8.59018 -2.72737,4.492 -4.95886,8.32089 -4.95886,8.50865 0,0.18776 2.25752,3.24299 5.0167,6.7894 2.75919,3.5464 5.02635,6.68665 5.03814,6.97834 0.0118,0.29168 -1.48152,3.11568 -3.31846,6.27557 l -3.3399,5.74524 -27.41925,-0.0843 c -15.08058,-0.0464 -43.64734,-0.16568 -63.48169,-0.26517 z"
       id="path6739"
       transform="scale(0.26458333)" />
    <path
       style="opacity:1;fill:none;fill-opacity:1;stroke-width:0.353553"
       d="m 257.03331,465.44309 -36.23922,-0.19649 -20.59657,-5.67357 c -11.32811,-3.12047 -20.67228,-5.74928 -20.7648,-5.84181 -0.0925,-0.0925 -0.21092,-25.19137 -0.26308,-55.7752 l -0.0948,-55.60697 82.73149,0.25459 c 45.50233,0.14002 82.83205,0.31207 82.95494,0.38234 0.3223,0.18426 9.49928,17.32815 9.49928,17.74598 0,0.19245 -2.78332,2.93648 -6.18514,6.09784 -5.29258,4.91847 -6.12166,5.82764 -5.74525,6.30016 0.24195,0.30373 3.11047,3.49073 6.3745,7.08225 3.58348,3.94301 5.8603,6.72362 5.74707,7.0187 -0.10314,0.26877 -2.74744,4.21937 -5.87623,8.77912 l -5.68872,8.29045 0.97912,1.67329 c 0.53851,0.92031 3.02238,4.91356 5.51969,8.87389 2.49731,3.96034 4.69785,7.4945 4.89009,7.85369 0.28441,0.53144 -0.57354,2.17559 -4.60578,8.82638 -2.72541,4.49531 -4.9553,8.30585 -4.9553,8.46787 0,0.16201 2.24343,3.20077 4.9854,6.7528 2.74197,3.55203 5.05356,6.63586 5.13686,6.85295 0.0833,0.21709 -1.38617,3.05208 -3.2655,6.29998 l -3.41696,5.90526 -27.44091,-0.0835 c -15.0925,-0.0459 -43.74855,-0.17192 -63.68013,-0.27999 z"
       id="path6741"
       transform="scale(0.26458333)" />
    <path
       style="opacity:1;fill:none;fill-opacity:1;stroke-width:0.353553"
       d="m 257.03331,465.45206 -36.23922,-0.18751 -20.59297,-5.67895 c -11.32613,-3.12341 -20.66982,-5.7558 -20.76376,-5.84974 -0.0939,-0.0939 -0.21394,-25.1944 -0.26668,-55.77881 l -0.0959,-55.60801 82.73149,0.25459 c 45.50233,0.14003 82.83205,0.31208 82.95494,0.38235 0.32795,0.18749 9.49928,17.33196 9.49928,17.75751 0,0.19879 -2.70469,2.86849 -6.01041,5.93266 -3.30573,3.06418 -6.01041,5.76389 -6.01041,5.99937 0,0.23548 2.7894,3.49811 6.19866,7.2503 3.72117,4.09546 6.12415,7.01632 6.01224,7.30796 -0.10253,0.26719 -2.74634,4.2165 -5.87513,8.77625 l -5.68872,8.29045 0.97912,1.67329 c 0.53851,0.92031 3.02238,4.91356 5.51969,8.87389 2.49731,3.96034 4.69533,7.48979 4.88449,7.84323 0.27662,0.51687 -0.58884,2.19503 -4.42292,8.57614 -2.62176,4.36343 -4.85476,8.16265 -4.96223,8.4427 -0.11807,0.3077 1.83813,3.15027 4.94367,7.18367 2.82648,3.67097 5.13905,6.78939 5.13905,6.92982 0,0.14043 -1.53434,2.89414 -3.40966,6.11935 l -3.40965,5.86402 -27.43788,-0.0835 c -15.09083,-0.0459 -43.74552,-0.16788 -63.6771,-0.27102 z"
       id="path6743"
       transform="scale(0.26458333)" />
    <path
       style="opacity:1;fill:none;fill-opacity:1;stroke-width:0.353553"
       d="m 257.03331,465.45792 -36.23922,-0.18166 -20.60078,-5.69261 c -11.33043,-3.13094 -20.6732,-5.76503 -20.76171,-5.85355 -0.0885,-0.0885 -0.20501,-25.18568 -0.25887,-55.77149 l -0.0979,-55.61055 82.73149,0.25493 c 45.50233,0.14021 82.84006,0.31744 82.97276,0.39384 0.33831,0.1948 9.48146,17.2963 9.48146,17.7343 0,0.19699 -2.70369,2.87871 -6.00821,5.95938 -3.3045,3.08066 -6.00919,5.7637 -6.0104,5.9623 -0.001,0.1986 2.78661,3.45276 6.19517,7.23146 3.90014,4.32367 6.12525,7.05835 6.00278,7.37748 -0.10702,0.27891 -2.74352,4.22179 -5.85887,8.76195 -4.75484,6.92946 -5.6064,8.36301 -5.30374,8.92852 0.1983,0.37053 2.67473,4.36744 5.50319,8.88202 2.82845,4.51459 5.29741,8.49752 5.48656,8.85096 0.27677,0.51714 -0.63231,2.27064 -4.65576,8.98032 l -4.99968,8.3377 4.73609,6.19425 c 2.60485,3.40684 4.9517,6.54769 5.21523,6.97967 0.44179,0.72419 0.21044,1.24706 -2.96772,6.70743 l -3.44685,5.92202 -27.43788,-0.0835 c -15.09083,-0.0459 -43.74552,-0.16525 -63.6771,-0.26516 z"
       id="path6745"
       transform="scale(0.26458333)" />
    <g
       id="g22550"
       style="image-rendering:auto">
      <g
         id="g22541">
        <path
           style="opacity:0.390977;fill:#000000;fill-opacity:1;stroke-width:0.396992"
           d="m 8.7931674,4.8300309 v 7.6540701 7.65407 l 6.1620146,1.551813 25.761744,0.01309 2.461242,-2.449302 -2.750802,-2.109122 2.678412,-2.449302 -3.329917,-2.041085 3.112747,-1.632869 -3.185134,-2.1091216 3.377463,-2.3338655 -1.936286,-1.7739353 -16.224279,-0.01443 z"
           id="path16345"
           sodipodi:nodetypes="ccccccccccccccc" />
        <path
           style="opacity:1;fill:#000000;fill-opacity:1;stroke-width:0.396992"
           d="m 8.8253052,20.144807 6.2704178,1.539482 25.623529,0.03693 2.466296,-2.47056 -2.649841,-2.136717 2.583661,-2.45355 -3.249094,-2.020572 3.119841,-1.6668 -3.273402,-2.0856893 3.353859,-2.3043892 -0.0011,-0.016862 -1.928611,-1.7664966 z"
           id="path17187"
           sodipodi:nodetypes="ccccccccccccc" />
        <text
           xml:space="preserve"
           style="font-size:4.50716px;letter-spacing:0.607398px;opacity:1;fill:#000000;fill-opacity:1;stroke-width:0.375596"
           id="text18749"
           y="19.929283"
           x="4.8179531"
           transform="matrix(0.99452388,-0.41988305,0.39989022,0.83667461,0,0)"><tspan
             id="tspan18747"
             style="stroke-width:0.375596"
             x="4.8179531"
             y="19.929283"
             sodipodi:role="line"
             rotate="352 352 352 352 352 0">White</tspan></text>
        <text
           xml:space="preserve"
           style="font-size:3.00388px;letter-spacing:0.404812px;white-space:pre;inline-size:16.5655;fill:#000000;fill-opacity:1;stroke-width:0.250323"
           id="text18749-9"
           y="21.687647"
           x="7.0298576"
           transform="matrix(1.5080498,-0.66365952,0.60637493,1.3224327,-5.1237275,-3.1231473)"><tspan
             x="7.0298576"
             y="21.687647"
             id="tspan22634"><tspan
               style="fill:#ffffff"
               id="tspan22632">Tickets</tspan></tspan></text>
      </g>
    </g>
  </g>
</svg>
